<svg width="853" height="225" viewBox="0 0 853 225" fill="none" xmlns="http://www.w3.org/2000/svg">
<path d="M272.156 186V72.25H307.156C317.156 72.25 326.089 74.5156 333.953 79.0469C341.87 83.526 348.042 89.9323 352.469 98.2656C356.896 106.547 359.109 115.974 359.109 126.547V131.781C359.109 142.354 356.922 151.755 352.547 159.984C348.224 168.214 342.104 174.594 334.188 179.125C326.271 183.656 317.339 185.948 307.391 186H272.156ZM295.594 91.2344V167.172H306.922C316.089 167.172 323.094 164.177 327.938 158.188C332.781 152.198 335.255 143.63 335.359 132.484V126.469C335.359 114.906 332.964 106.156 328.172 100.219C323.38 94.2292 316.375 91.2344 307.156 91.2344H295.594ZM423.719 186C422.677 183.969 421.922 181.443 421.453 178.422C415.984 184.516 408.875 187.562 400.125 187.562C391.844 187.562 384.969 185.167 379.5 180.375C374.083 175.583 371.375 169.542 371.375 162.25C371.375 153.292 374.682 146.417 381.297 141.625C387.964 136.833 397.573 134.411 410.125 134.359H420.516V129.516C420.516 125.609 419.5 122.484 417.469 120.141C415.49 117.797 412.339 116.625 408.016 116.625C404.214 116.625 401.219 117.536 399.031 119.359C396.896 121.182 395.828 123.682 395.828 126.859H373.25C373.25 121.964 374.76 117.432 377.781 113.266C380.802 109.099 385.073 105.844 390.594 103.5C396.115 101.104 402.312 99.9062 409.188 99.9062C419.604 99.9062 427.859 102.536 433.953 107.797C440.099 113.005 443.172 120.349 443.172 129.828V166.469C443.224 174.49 444.344 180.557 446.531 184.672V186H423.719ZM405.047 170.297C408.38 170.297 411.453 169.568 414.266 168.109C417.078 166.599 419.161 164.594 420.516 162.094V147.562H412.078C400.776 147.562 394.76 151.469 394.031 159.281L393.953 160.609C393.953 163.422 394.943 165.74 396.922 167.562C398.901 169.385 401.609 170.297 405.047 170.297ZM506.297 162.641C506.297 159.88 504.917 157.719 502.156 156.156C499.448 154.542 495.073 153.109 489.031 151.859C468.927 147.641 458.875 139.099 458.875 126.234C458.875 118.734 461.974 112.484 468.172 107.484C474.422 102.432 482.573 99.9062 492.625 99.9062C503.354 99.9062 511.922 102.432 518.328 107.484C524.786 112.536 528.016 119.099 528.016 127.172H505.438C505.438 123.943 504.396 121.286 502.312 119.203C500.229 117.068 496.974 116 492.547 116C488.745 116 485.802 116.859 483.719 118.578C481.635 120.297 480.594 122.484 480.594 125.141C480.594 127.641 481.766 129.672 484.109 131.234C486.505 132.745 490.516 134.073 496.141 135.219C501.766 136.312 506.505 137.562 510.359 138.969C522.286 143.344 528.25 150.922 528.25 161.703C528.25 169.411 524.943 175.661 518.328 180.453C511.714 185.193 503.172 187.562 492.703 187.562C485.62 187.562 479.318 186.312 473.797 183.812C468.328 181.26 464.031 177.797 460.906 173.422C457.781 168.995 456.219 164.229 456.219 159.125H477.625C477.833 163.135 479.318 166.208 482.078 168.344C484.839 170.479 488.536 171.547 493.172 171.547C497.495 171.547 500.75 170.74 502.938 169.125C505.177 167.458 506.297 165.297 506.297 162.641ZM564.891 110.688C570.88 103.5 578.406 99.9062 587.469 99.9062C605.802 99.9062 615.099 110.557 615.359 131.859V186H592.781V132.484C592.781 127.641 591.74 124.073 589.656 121.781C587.573 119.438 584.109 118.266 579.266 118.266C572.651 118.266 567.859 120.818 564.891 125.922V186H542.312V66H564.891V110.688ZM629.109 143.109C629.109 130.141 632.182 119.698 638.328 111.781C644.526 103.865 652.859 99.9062 663.328 99.9062C672.599 99.9062 679.812 103.083 684.969 109.438L685.906 101.469H706.375V183.188C706.375 190.583 704.682 197.016 701.297 202.484C697.964 207.953 693.25 212.12 687.156 214.984C681.062 217.849 673.927 219.281 665.75 219.281C659.552 219.281 653.51 218.031 647.625 215.531C641.74 213.083 637.286 209.906 634.266 206L644.266 192.25C649.891 198.552 656.714 201.703 664.734 201.703C670.724 201.703 675.385 200.089 678.719 196.859C682.052 193.682 683.719 189.151 683.719 183.266V178.734C678.51 184.62 671.661 187.562 663.172 187.562C653.016 187.562 644.786 183.604 638.484 175.688C632.234 167.719 629.109 157.172 629.109 144.047V143.109ZM651.688 144.75C651.688 152.406 653.224 158.422 656.297 162.797C659.37 167.12 663.589 169.281 668.953 169.281C675.828 169.281 680.75 166.703 683.719 161.547V126C680.698 120.844 675.828 118.266 669.109 118.266C663.693 118.266 659.422 120.479 656.297 124.906C653.224 129.333 651.688 135.948 651.688 144.75ZM720.281 142.953C720.281 134.568 721.896 127.094 725.125 120.531C728.354 113.969 732.99 108.891 739.031 105.297C745.125 101.703 752.182 99.9062 760.203 99.9062C771.609 99.9062 780.906 103.396 788.094 110.375C795.333 117.354 799.37 126.833 800.203 138.812L800.359 144.594C800.359 157.562 796.74 167.979 789.5 175.844C782.26 183.656 772.547 187.562 760.359 187.562C748.172 187.562 738.432 183.656 731.141 175.844C723.901 168.031 720.281 157.406 720.281 143.969V142.953ZM742.859 144.594C742.859 152.615 744.37 158.76 747.391 163.031C750.411 167.25 754.734 169.359 760.359 169.359C765.828 169.359 770.099 167.276 773.172 163.109C776.245 158.891 777.781 152.172 777.781 142.953C777.781 135.089 776.245 128.995 773.172 124.672C770.099 120.349 765.776 118.188 760.203 118.188C754.682 118.188 750.411 120.349 747.391 124.672C744.37 128.943 742.859 135.583 742.859 144.594Z" fill="#EEEEF2"/>
<path d="M815.438 174.906C815.438 171.312 816.635 168.396 819.031 166.156C821.479 163.917 824.526 162.797 828.172 162.797C831.87 162.797 834.917 163.917 837.312 166.156C839.76 168.396 840.984 171.312 840.984 174.906C840.984 178.448 839.786 181.339 837.391 183.578C834.995 185.766 831.922 186.859 828.172 186.859C824.474 186.859 821.427 185.766 819.031 183.578C816.635 181.339 815.438 178.448 815.438 174.906Z" fill="#D53F8C"/>
<path d="M53.7005 177.252C18.8315 158.865 26.9838 67.0002 49.8266 44.9764C75.5979 15.8469 100.518 10.0027 154.289 10.1198C126.103 -1.55552 93.6195 -5.5707 53.7005 11.4465C23.5107 24.3161 2.80525 60.4992 0 110.252C3.07242 189.06 42.813 220.443 102.905 225C169.429 222.214 221.982 191.069 225 117.173C219.848 36.8283 150.813 31.0049 130.11 28.7902C109.407 26.5755 46.7542 46.4723 46.7542 113.34C51.296 153.238 62.8618 166.261 104.729 174.37C141.198 179.279 176.502 129.558 158.964 98.2151C141.426 66.8718 102.335 78.389 90.3023 99.6745C83.1878 124.286 88.8529 131.683 104.729 136.292C116.699 135.434 121.843 132.476 124.767 117.32H104.729C105.674 105.898 107.904 100.927 119.023 98.2151C152.774 93.6279 153.893 120.39 135.721 142.661C117.548 164.932 74.1387 159.076 66.5245 129.791C57.0303 83.0254 90.8827 59.4044 135.721 57.3516C222.255 74.3036 187.275 162.846 149.613 182.33C111.951 201.814 88.5695 195.639 53.7005 177.252Z" fill="#D53F8C"/>
</svg>
