<svg width="1422" height="1432" viewBox="0 0 1422 1432" fill="none" xmlns="http://www.w3.org/2000/svg">
<path d="M339.2 1127.37C118.949 1010.43 170.444 426.14 314.73 286.062C477.515 100.791 634.921 63.6203 974.567 64.3645C796.529 -9.89352 591.349 -35.4312 339.2 72.8027C148.505 154.657 17.7194 384.792 0 701.233C19.407 1202.47 270.429 1402.08 650 1431.06C1070.2 1413.34 1402.15 1215.25 1421.22 745.253C1388.67 234.239 952.615 197.2 821.842 183.114C691.07 169.027 295.323 295.577 295.323 720.874C324.012 974.638 397.068 1057.47 661.524 1109.04C891.876 1140.26 1114.88 824.028 1004.1 624.676C893.321 425.324 646.398 498.577 570.396 633.958C525.457 790.492 561.241 837.544 661.524 866.859C737.132 861.397 769.622 842.585 788.091 746.189H661.524C667.489 673.544 681.579 641.927 751.809 624.676C965 595.5 972.068 765.714 857.281 907.363C742.494 1049.01 468.298 1011.77 420.203 825.51C360.233 528.065 574.062 377.829 857.281 364.772C1403.88 472.592 1182.93 1035.75 945.034 1159.67C707.142 1283.6 559.451 1244.32 339.2 1127.37Z" fill="#D53F8C"/>
</svg>
